<svg width="96" height="66" viewBox="0 0 96 66" fill="none" xmlns="http://www.w3.org/2000/svg">
<path opacity="0.4" d="M77.4375 25.125C74.625 11.4375 62.625 0.9375 48 0.9375C36.375 0.9375 26.4375 7.5 21.375 17.25C9.375 18.375 0 28.6875 0 41.0625C0 54.1875 10.6875 65.0625 24 65.0625H75.9375C87 65.0625 96 56.0625 96 45C96 34.5 87.75 25.875 77.4375 25.125ZM75.9375 57H24C15.1875 57 8.0625 49.875 8.0625 41.0625C8.0625 32.8125 14.0625 25.875 22.3125 25.125L26.4375 24.75L28.5 20.8125C32.25 13.5 39.75 9 48 9C58.5 9 67.5 16.5 69.5625 26.8125L70.6875 32.8125L76.875 33.1875C83.0625 33.5625 87.9375 38.8125 87.9375 45C87.9375 51.5625 82.6875 57 75.9375 57ZM32.0625 36.9375H42.1875V48.9375H53.8125V36.9375H63.9375L48 21L32.0625 36.9375Z" fill="#565660"/>
</svg>
