<svg width="18" height="18" viewBox="0 0 18 18" fill="none" xmlns="http://www.w3.org/2000/svg">
<path d="M3.49882 0H1.50118C0.673759 0 0 0.674092 0 1.50117V3.49941C0 4.33177 0.673759 5 1.50118 5H3.49882C4.33215 5 5 4.33177 5 3.49941V1.50117C5 0.674092 4.33215 0 3.49882 0Z" fill="white"/>
<path d="M3.49882 6.5H1.50118C0.673759 6.5 0 7.17409 0 8.00117V9.99941C0 10.8318 0.673759 11.5 1.50118 11.5H3.49882C4.33215 11.5 5 10.8318 5 9.99941V8.00117C5 7.17409 4.33215 6.5 3.49882 6.5Z" fill="white"/>
<path d="M3.49882 13H1.50118C0.673759 13 0 13.6741 0 14.5012V16.4994C0 17.3318 0.673759 18 1.50118 18H3.49882C4.33215 18 5 17.3318 5 16.4994V14.5012C5 13.6741 4.33215 13 3.49882 13Z" fill="white"/>
<path d="M9.99979 0H8.00216C7.16883 0 6.50098 0.674091 6.50098 1.50117V3.49941C6.50098 4.33177 7.16883 5 8.00216 5H9.99979C10.8272 5 11.501 4.33177 11.501 3.49941V1.50117C11.501 0.674091 10.8272 0 9.99979 0Z" fill="white"/>
<path d="M9.99979 6.49805H8.00216C7.16883 6.49805 6.50098 7.17214 6.50098 7.99922V9.99746C6.50098 10.8298 7.16883 11.498 8.00216 11.498H9.99979C10.8272 11.498 11.501 10.8298 11.501 9.99746V7.99922C11.501 7.17214 10.8272 6.49805 9.99979 6.49805Z" fill="white"/>
<path d="M9.99979 13H8.00216C7.16883 13 6.50098 13.6741 6.50098 14.5012V16.4994C6.50098 17.3318 7.16883 18 8.00216 18H9.99979C10.8272 18 11.501 17.3318 11.501 16.4994V14.5012C11.501 13.6741 10.8272 13 9.99979 13Z" fill="white"/>
<path d="M16.4988 0H14.5012C13.6678 0 13 0.674091 13 1.50117V3.49941C13 4.33177 13.6678 5 14.5012 5H16.4988C17.3262 5 18 4.33177 18 3.49941V1.50117C18 0.674091 17.3262 0 16.4988 0Z" fill="white"/>
<path d="M16.4988 6.5H14.5012C13.6678 6.5 13 7.17409 13 8.00117V9.99941C13 10.8318 13.6678 11.5 14.5012 11.5H16.4988C17.3262 11.5 18 10.8318 18 9.99941V8.00117C18 7.17409 17.3262 6.5 16.4988 6.5Z" fill="white"/>
<path d="M16.4988 13H14.5012C13.6678 13 13 13.6741 13 14.5012V16.4994C13 17.3318 13.6678 18 14.5012 18H16.4988C17.3262 18 18 17.3318 18 16.4994V14.5012C18 13.6741 17.3262 13 16.4988 13Z" fill="white"/>
</svg>
