<svg width="120" height="120" viewBox="0 0 120 120" fill="none" xmlns="http://www.w3.org/2000/svg">
<path d="M24.5665 36.4583C44.1359 17.1806 75.8642 17.1806 95.4336 36.4583L97.7888 38.7784C98.7673 39.7423 98.7673 41.3051 97.7888 42.269L89.7321 50.2056C89.2429 50.6875 88.4497 50.6875 87.9605 50.2056L84.7194 47.0128C71.0673 33.5642 48.9328 33.5642 35.2807 47.0128L31.8098 50.432C31.3206 50.9139 30.5274 50.9139 30.0381 50.432L21.9814 42.4954C21.003 41.5315 21.003 39.9687 21.9814 39.0048L24.5665 36.4583ZM112.096 52.8721L119.266 59.9357C120.245 60.8996 120.245 62.4624 119.266 63.4263L86.934 95.2771C85.9555 96.241 84.3691 96.241 83.3906 95.2771C83.3906 95.2771 83.3906 95.2771 83.3906 95.2771L60.4431 72.6716C60.1985 72.4307 59.8019 72.4307 59.5573 72.6716C59.5573 72.6716 59.5573 72.6716 59.5573 72.6716L36.6103 95.2771C35.6319 96.241 34.0455 96.241 33.067 95.2771C33.067 95.2771 33.067 95.2771 33.067 95.2771L0.733853 63.4258C-0.244618 62.462 -0.244618 60.8992 0.733853 59.9353L7.90435 52.8717C8.88282 51.9078 10.4692 51.9078 11.4477 52.8717L34.3955 75.4774C34.6401 75.7184 35.0367 75.7184 35.2813 75.4774C35.2813 75.4774 35.2813 75.4774 35.2813 75.4774L58.228 52.8717C59.2064 51.9078 60.7928 51.9077 61.7713 52.8716C61.7713 52.8716 61.7713 52.8716 61.7714 52.8716L84.7191 75.4774C84.9637 75.7184 85.3603 75.7184 85.6049 75.4774L108.552 52.8721C109.531 51.9082 111.117 51.9082 112.096 52.8721Z" fill="#3B99FC"/>
</svg>
