<svg width="12" height="15" viewBox="0 0 12 15" fill="none" xmlns="http://www.w3.org/2000/svg">
<path d="M10.125 8.28125L7.96875 7.21875C8.8125 6.53125 9.375 5.5 9.375 4.34375C9.375 2.3125 7.71875 0.65625 5.71875 0.65625C3.6875 0.65625 2.03125 2.3125 2.03125 4.34375C2.03125 5.75 2.875 7 4.03125 7.59375V9.78125C2.625 9.46875 2.6875 9.46875 2.53125 9.46875C2.1875 9.46875 1.84375 9.625 1.59375 9.875L0.65625 10.8125L4.0625 14.2188C4.34375 14.5 4.75 14.6562 5.15625 14.6562H9.375C10 14.6562 10.5625 14.1875 10.6875 13.5625L11.2188 10.4062C11.3438 9.53125 10.9062 8.6875 10.125 8.28125ZM9.90625 10.1875L9.375 13.3438H5.15625C5.09375 13.3438 5.03125 13.3125 5 13.2812L2.53125 10.8125L5.375 11.4062V4.34375C5.375 4.15625 5.53125 4 5.71875 4C5.90625 4 6.03125 4.15625 6.03125 4.34375V8.34375H7.21875L9.53125 9.5C9.78125 9.625 9.9375 9.90625 9.90625 10.1875ZM3.375 4.34375C3.375 3.03125 4.4375 2 5.71875 2C7 2 8.03125 3.03125 8.03125 4.34375C8.03125 4.96875 7.78125 5.53125 7.375 5.96875V4.34375C7.375 3.40625 6.625 2.65625 5.71875 2.65625C4.78125 2.65625 4.03125 3.40625 4.03125 4.34375V5.96875C3.625 5.53125 3.375 4.96875 3.375 4.34375Z" fill="white"/>
</svg>
