<svg width="6" height="12" viewBox="0 0 6 12" fill="none" xmlns="http://www.w3.org/2000/svg">
<path d="M2.60123 12V10.9476C1.79959 10.8474 1.16564 10.5285 0.699386 9.99089C0.233129 9.4533 0 8.76993 0 7.94077H1.07975C1.07975 8.42369 1.20654 8.85649 1.46012 9.23918C1.72188 9.61276 2.10225 9.85421 2.60123 9.96355V6.25968C2.54397 6.24146 2.48262 6.22323 2.41718 6.20501C2.35992 6.17768 2.30266 6.1549 2.2454 6.13667C1.58282 5.88155 1.09202 5.5672 0.773006 5.19362C0.453988 4.81093 0.294478 4.31435 0.294478 3.70387C0.286298 2.99317 0.486708 2.40091 0.895705 1.92711C1.31288 1.4533 1.88139 1.17995 2.60123 1.10706V0H3.44785V1.10706C4.13497 1.19818 4.68303 1.48519 5.09202 1.96811C5.50102 2.45102 5.70961 3.03872 5.71779 3.73121H4.63804C4.63804 3.39408 4.53988 3.07061 4.34356 2.76082C4.14724 2.44191 3.84867 2.22779 3.44785 2.11845V5.42597C3.51329 5.44419 3.57873 5.46697 3.64417 5.49431C3.70961 5.52164 3.77914 5.54442 3.85276 5.56264C4.26176 5.72665 4.62986 5.91799 4.95705 6.13667C5.28425 6.35535 5.53783 6.63781 5.71779 6.98405C5.90593 7.3303 6 7.77221 6 8.30979C6 8.73804 5.90593 9.14351 5.71779 9.5262C5.52965 9.90888 5.24335 10.2323 4.8589 10.4966C4.48262 10.7608 4.01227 10.9157 3.44785 10.9613V12H2.60123ZM1.36196 3.59453C1.36196 4.01367 1.47239 4.33257 1.69325 4.55125C1.91411 4.76082 2.21677 4.94305 2.60123 5.09795V2.09112C2.23313 2.1549 1.93456 2.31891 1.70552 2.58314C1.47648 2.83827 1.36196 3.1754 1.36196 3.59453ZM4.93251 8.37813C4.93251 7.84966 4.79346 7.45786 4.51534 7.20273C4.23722 6.94761 3.88139 6.73804 3.44785 6.57403V9.99089C3.92229 9.92711 4.2863 9.74487 4.53988 9.44419C4.80164 9.14351 4.93251 8.78815 4.93251 8.37813Z" fill="white"/>
</svg>
