<svg width="36" height="36" viewBox="0 0 36 36" fill="none" xmlns="http://www.w3.org/2000/svg">
<path d="M12.6969 16.9396C14.3964 15.2401 17.3604 15.2401 19.0599 16.9396L20.1204 18.0001L22.2414 15.8791L21.1809 14.8186C19.7664 13.4026 17.8824 12.6211 15.8784 12.6211C13.8744 12.6211 11.9904 13.4026 10.5759 14.8186L7.39286 18.0001C5.9893 19.4082 5.20117 21.3152 5.20117 23.3033C5.20117 25.2915 5.9893 27.1985 7.39286 28.6066C8.08867 29.3034 8.91531 29.8558 9.82529 30.2322C10.7353 30.6085 11.7106 30.8014 12.6954 30.7996C13.6804 30.8016 14.656 30.609 15.5663 30.2326C16.4765 29.8562 17.3034 29.3036 17.9994 28.6066L19.0599 27.5461L16.9389 25.4251L15.8784 26.4856C15.0331 27.3271 13.8889 27.7995 12.6961 27.7995C11.5034 27.7995 10.3592 27.3271 9.51386 26.4856C8.67162 25.6407 8.19867 24.4963 8.19867 23.3033C8.19867 22.1103 8.67162 20.966 9.51386 20.1211L12.6969 16.9396Z" fill="white"/>
<path opacity="0.4" d="M17.9998 7.39605L16.9393 8.45655L19.0603 10.5776L20.1208 9.51705C20.9661 8.67554 22.1103 8.2031 23.3031 8.2031C24.4958 8.2031 25.64 8.67554 26.4853 9.51705C27.3276 10.362 27.8005 11.5063 27.8005 12.6993C27.8005 13.8923 27.3276 15.0366 26.4853 15.8816L23.3023 19.0631C21.6028 20.7626 18.6388 20.7626 16.9393 19.0631L15.8788 18.0026L13.7578 20.1236L14.8183 21.1841C16.2328 22.6001 18.1168 23.3816 20.1208 23.3816C22.1248 23.3816 24.0088 22.6001 25.4233 21.1841L28.6063 18.0026C30.0099 16.5945 30.798 14.6874 30.798 12.6993C30.798 10.7112 30.0099 8.80413 28.6063 7.39605C27.1986 5.99176 25.2914 5.20312 23.3031 5.20312C21.3147 5.20313 19.4075 5.99176 17.9998 7.39605Z" fill="white"/>
</svg>
