<svg width="120" height="120" viewBox="0 0 120 120" fill="none" xmlns="http://www.w3.org/2000/svg">
<path fill-rule="evenodd" clip-rule="evenodd" d="M23.5041 10C18.2551 10 14 14.1915 14 19.3619V30.2677C14 35.4381 18.2551 39.6296 23.5041 39.6296H40.3194V100.638C40.3194 105.809 44.5745 110 49.8234 110H60.895C66.1439 110 70.3991 105.809 70.3991 100.638V30.347C70.3993 30.3207 70.3995 30.2942 70.3995 30.2677V19.3619C70.3995 14.1915 66.1443 10 60.8952 10H49.8234H23.5041Z" fill="#0097FF"/>
<path d="M92.9597 39.6296C101.266 39.6296 108 32.9968 108 24.8148C108 16.6328 101.266 10 92.9597 10C84.6534 10 77.9199 16.6328 77.9199 24.8148C77.9199 32.9968 84.6534 39.6296 92.9597 39.6296Z" fill="#0097FF"/>
</svg>
