<svg width="29" height="28" viewBox="0 0 29 28" fill="none" xmlns="http://www.w3.org/2000/svg">
<path fill-rule="evenodd" clip-rule="evenodd" d="M8.66683 7C5.44517 7 2.8335 9.61167 2.8335 12.8333V19.8333C2.8335 23.055 5.44517 25.6667 8.66683 25.6667H20.3335C23.4994 25.6667 26.0763 23.1446 26.1645 20H20.9168C18.8918 20 17.2502 18.3584 17.2502 16.3333C17.2502 14.3083 18.8918 12.6667 20.9168 12.6667H26.1645C26.0763 9.52208 23.4994 7 20.3335 7H8.66683ZM20.9168 14.1667H26.1668V18.5H20.9168C19.7202 18.5 18.7502 17.53 18.7502 16.3333C18.7502 15.1367 19.7202 14.1667 20.9168 14.1667ZM7.50016 19.6667C7.08595 19.6667 6.75016 20.0025 6.75016 20.4167C6.75016 20.8309 7.08595 21.1667 7.50016 21.1667H14.5002C14.9144 21.1667 15.2502 20.8309 15.2502 20.4167C15.2502 20.0025 14.9144 19.6667 14.5002 19.6667H7.50016ZM20.9168 15.5833C20.5026 15.5833 20.1668 15.9191 20.1668 16.3333C20.1668 16.7475 20.5026 17.0833 20.9168 17.0833H21.1502C21.5644 17.0833 21.9002 16.7475 21.9002 16.3333C21.9002 15.9191 21.5644 15.5833 21.1502 15.5833H20.9168Z" fill="white"/>
<path d="M23.2358 5.82511C22.3946 3.50184 19.9374 2.00192 17.3483 2.53497L7.31417 4.60083C5.21838 5.03231 3.52043 6.41391 2.63232 8.24014C4.0177 6.42277 6.20534 5.24992 8.66692 5.24992H20.3336C21.3616 5.24992 22.3418 5.45448 23.2358 5.82511Z" fill="white"/>
</svg>
