<svg width="29" height="28" viewBox="0 0 29 28" fill="none" xmlns="http://www.w3.org/2000/svg">
<path fill-rule="evenodd" clip-rule="evenodd" d="M1.95801 8.16659C1.95801 4.46168 4.96143 1.45825 8.66634 1.45825H20.333C24.0379 1.45825 27.0413 4.46168 27.0413 8.16659V19.8333C27.0413 23.5382 24.0379 26.5416 20.333 26.5416H8.66634C4.96143 26.5416 1.95801 23.5382 1.95801 19.8333V8.16659ZM8.66634 3.20825C5.92793 3.20825 3.70801 5.42817 3.70801 8.16659V19.8333C3.70801 22.5717 5.92793 24.7916 8.66634 24.7916H20.333C23.0714 24.7916 25.2913 22.5717 25.2913 19.8333V8.16659C25.2913 5.42817 23.0714 3.20825 20.333 3.20825H8.66634Z" fill="white"/>
<path fill-rule="evenodd" clip-rule="evenodd" d="M2.83301 8.16659C2.83301 4.94492 5.44468 2.33325 8.66634 2.33325H20.333C23.5547 2.33325 26.1663 4.94492 26.1663 8.16659V19.8333C26.1663 20.6818 25.9852 21.488 25.6594 22.2154L26.0874 19.219C26.1365 18.8756 26.0041 18.5314 25.7377 18.3094L20.4291 13.8856C19.7139 13.2896 18.6623 13.3373 18.004 13.9956L11.8482 20.1514C11.3796 20.62 10.6198 20.62 10.1511 20.1514L8.57789 18.5781C7.9557 17.9559 6.97488 17.8748 6.25887 18.3862L3.8351 20.1175C3.57231 20.3052 3.41634 20.6083 3.41634 20.9312V22.2693C3.41634 22.3117 3.41904 22.3538 3.42431 22.3953C3.04561 21.622 2.83301 20.7524 2.83301 19.8333V8.16659ZM22.9043 24.8929L25.1911 23.0635C24.1456 24.6327 22.36 25.6666 20.333 25.6666H8.66634C6.63931 25.6666 4.85377 24.6327 3.80828 23.0635L6.08618 24.8858C6.24681 25.0143 6.44318 25.0901 6.64849 25.103L15.5936 25.662C15.642 25.6651 15.6906 25.6646 15.739 25.6605L22.3627 25.1086C22.5606 25.0921 22.7492 25.017 22.9043 24.8929ZM9.83301 11.6666C8.54434 11.6666 7.49967 10.6219 7.49967 9.33325C7.49967 8.04459 8.54434 6.99992 9.83301 6.99992C11.1217 6.99992 12.1663 8.04459 12.1663 9.33325C12.1663 10.6219 11.1217 11.6666 9.83301 11.6666Z" fill="white"/>
</svg>
