<svg width="18" height="18" viewBox="0 0 18 18" fill="none" xmlns="http://www.w3.org/2000/svg">
<path d="M5.59811 0H2.40189C1.07801 0 0 1.07855 0 2.40188V5.59906C0 6.93083 1.07801 8 2.40189 8H5.59811C6.93144 8 8 6.93083 8 5.59906V2.40188C8 1.07855 6.93144 0 5.59811 0Z" fill="white"/>
<path d="M5.59811 10H2.40189C1.07801 10 0 11.0785 0 12.4019V15.5991C0 16.9308 1.07801 18 2.40189 18H5.59811C6.93144 18 8 16.9308 8 15.5991V12.4019C8 11.0785 6.93144 10 5.59811 10Z" fill="white"/>
<path d="M15.5981 0H12.4019C11.0686 0 10 1.07855 10 2.40188V5.59906C10 6.93083 11.0686 8 12.4019 8H15.5981C16.922 8 18 6.93083 18 5.59906V2.40188C18 1.07855 16.922 0 15.5981 0Z" fill="white"/>
<path d="M15.5981 10H12.4019C11.0686 10 10 11.0701 10 12.4019V15.5991C10 16.9215 11.0686 18 12.4019 18H15.5981C16.922 18 18 16.9215 18 15.5991V12.4019C18 11.0701 16.922 10 15.5981 10Z" fill="white"/>
</svg>
