<svg width="14" height="10" viewBox="0 0 14 10" fill="none" xmlns="http://www.w3.org/2000/svg">
<path d="M5 5C6.28125 5 7.34375 3.96875 7.34375 2.65625C7.34375 1.375 6.28125 0.34375 5 0.34375C3.71875 0.34375 2.65625 1.375 2.65625 2.65625C2.65625 3.96875 3.71875 5 5 5ZM5 1.65625C5.5625 1.65625 6 2.125 6 2.65625C6 3.21875 5.5625 3.65625 5 3.65625C4.4375 3.65625 4 3.21875 4 2.65625C4 2.125 4.4375 1.65625 5 1.65625ZM5.03125 8.34375H2.1875C2.84375 8 3.96875 7.65625 5 7.65625C5.0625 7.65625 5.15625 7.6875 5.21875 7.6875C5.46875 7.1875 5.84375 6.78125 6.3125 6.46875C5.84375 6.375 5.375 6.34375 5 6.34375C3.4375 6.34375 0.34375 7.125 0.34375 8.65625V9.65625H5V8.65625C5 8.5625 5 8.4375 5.03125 8.34375ZM10 6.65625C8.78125 6.65625 6.34375 7.34375 6.34375 8.65625V9.65625H13.6562V8.65625C13.6562 7.34375 11.2188 6.65625 10 6.65625ZM10.8125 5.46875C11.3125 5.15625 11.6562 4.625 11.6562 4C11.6562 3.09375 10.9062 2.34375 10 2.34375C9.09375 2.34375 8.34375 3.09375 8.34375 4C8.34375 4.625 8.6875 5.15625 9.1875 5.46875C9.4375 5.59375 9.71875 5.65625 10 5.65625C10.2812 5.65625 10.5625 5.59375 10.8125 5.46875Z" fill="white"/>
</svg>
