<svg width="12" height="14" viewBox="0 0 12 14" fill="none" xmlns="http://www.w3.org/2000/svg">
<path d="M1.65625 13.6562V8.65625H0.65625V5C0.65625 4.28125 1.28125 3.65625 2 3.65625H4C4.71875 3.65625 5.34375 4.28125 5.34375 5V8.65625H4.34375V13.6562H1.65625ZM10 13.6562V9.65625H12L10.3125 4.59375C10.125 4.03125 9.625 3.65625 9.03125 3.65625H8.96875C8.375 3.65625 7.875 4.03125 7.6875 4.59375L6 9.65625H8V13.6562H10ZM3 3C3.75 3 4.34375 2.40625 4.34375 1.65625C4.34375 0.9375 3.75 0.34375 3 0.34375C2.25 0.34375 1.65625 0.9375 1.65625 1.65625C1.65625 2.40625 2.25 3 3 3ZM9 3C9.75 3 10.3438 2.40625 10.3438 1.65625C10.3438 0.9375 9.75 0.34375 9 0.34375C8.25 0.34375 7.65625 0.9375 7.65625 1.65625C7.65625 2.40625 8.25 3 9 3Z" fill="white"/>
</svg>
