<svg width="36" height="36" viewBox="0 0 36 36" fill="none" xmlns="http://www.w3.org/2000/svg">
<rect opacity="0.4" x="10" y="10" width="15" height="16" fill="white"/>
<path d="M17.9996 21.6016C18.9544 21.6016 19.8701 21.2223 20.5452 20.5471C21.2203 19.872 21.5996 18.9563 21.5996 18.0016C21.5996 17.0468 21.2203 16.1311 20.5452 15.456C19.8701 14.7808 18.9544 14.4016 17.9996 14.4016C17.0448 14.4016 16.1292 14.7808 15.454 15.456C14.7789 16.1311 14.3996 17.0468 14.3996 18.0016C14.3996 18.9563 14.7789 19.872 15.454 20.5471C16.1292 21.2223 17.0448 21.6016 17.9996 21.6016ZM14.3996 4.50156C14.3996 4.26287 14.3048 4.03395 14.136 3.86517C13.9672 3.69638 13.7383 3.60156 13.4996 3.60156C13.2609 3.60156 13.032 3.69638 12.8632 3.86517C12.6944 4.03395 12.5996 4.26287 12.5996 4.50156V7.20156H11.6996C10.5061 7.20156 9.36154 7.67567 8.51763 8.51958C7.67371 9.36349 7.19961 10.5081 7.19961 11.7016V12.6016H4.49961C4.26091 12.6016 4.032 12.6964 3.86321 12.8652C3.69443 13.0339 3.59961 13.2629 3.59961 13.5016C3.59961 13.7403 3.69443 13.9692 3.86321 14.138C4.032 14.3067 4.26091 14.4016 4.49961 14.4016H7.19961V17.1016H4.49961C4.26091 17.1016 4.032 17.1964 3.86321 17.3652C3.69443 17.5339 3.59961 17.7629 3.59961 18.0016C3.59961 18.2403 3.69443 18.4692 3.86321 18.638C4.032 18.8067 4.26091 18.9016 4.49961 18.9016H7.19961V21.6016H4.49961C4.26091 21.6016 4.032 21.6964 3.86321 21.8652C3.69443 22.0339 3.59961 22.2629 3.59961 22.5016C3.59961 22.7403 3.69443 22.9692 3.86321 23.138C4.032 23.3067 4.26091 23.4016 4.49961 23.4016H7.19961V24.3016C7.19961 25.495 7.67371 26.6396 8.51763 27.4835C9.36154 28.3275 10.5061 28.8016 11.6996 28.8016H12.5996V31.5016C12.5996 31.7403 12.6944 31.9692 12.8632 32.138C13.032 32.3067 13.2609 32.4016 13.4996 32.4016C13.7383 32.4016 13.9672 32.3067 14.136 32.138C14.3048 31.9692 14.3996 31.7403 14.3996 31.5016V28.8016H17.0996V31.5016C17.0996 31.7403 17.1944 31.9692 17.3632 32.138C17.532 32.3067 17.7609 32.4016 17.9996 32.4016C18.2383 32.4016 18.4672 32.3067 18.636 32.138C18.8048 31.9692 18.8996 31.7403 18.8996 31.5016V28.8016H21.5996V31.5016C21.5996 31.7403 21.6944 31.9692 21.8632 32.138C22.032 32.3067 22.2609 32.4016 22.4996 32.4016C22.7383 32.4016 22.9672 32.3067 23.136 32.138C23.3048 31.9692 23.3996 31.7403 23.3996 31.5016V28.8016H24.2996C25.4931 28.8016 26.6377 28.3275 27.4816 27.4835C28.3255 26.6396 28.7996 25.495 28.7996 24.3016V23.4016H31.4996C31.7383 23.4016 31.9672 23.3067 32.136 23.138C32.3048 22.9692 32.3996 22.7403 32.3996 22.5016C32.3996 22.2629 32.3048 22.0339 32.136 21.8652C31.9672 21.6964 31.7383 21.6016 31.4996 21.6016H28.7996V18.9016H31.4996C31.7383 18.9016 31.9672 18.8067 32.136 18.638C32.3048 18.4692 32.3996 18.2403 32.3996 18.0016C32.3996 17.7629 32.3048 17.5339 32.136 17.3652C31.9672 17.1964 31.7383 17.1016 31.4996 17.1016H28.7996V14.4016H31.4996C31.7383 14.4016 31.9672 14.3067 32.136 14.138C32.3048 13.9692 32.3996 13.7403 32.3996 13.5016C32.3996 13.2629 32.3048 13.0339 32.136 12.8652C31.9672 12.6964 31.7383 12.6016 31.4996 12.6016H28.7996V11.7016C28.7996 10.5081 28.3255 9.36349 27.4816 8.51958C26.6377 7.67567 25.4931 7.20156 24.2996 7.20156H23.3996V4.50156C23.3996 4.26287 23.3048 4.03395 23.136 3.86517C22.9672 3.69638 22.7383 3.60156 22.4996 3.60156C22.2609 3.60156 22.032 3.69638 21.8632 3.86517C21.6944 4.03395 21.5996 4.26287 21.5996 4.50156V7.20156H18.8996V4.50156C18.8996 4.26287 18.8048 4.03395 18.636 3.86517C18.4672 3.69638 18.2383 3.60156 17.9996 3.60156C17.7609 3.60156 17.532 3.69638 17.3632 3.86517C17.1944 4.03395 17.0996 4.26287 17.0996 4.50156V7.20156H14.3996V4.50156ZM23.3996 18.0016C23.3996 19.4337 22.8307 20.8072 21.818 21.8199C20.8053 22.8326 19.4318 23.4016 17.9996 23.4016C16.5674 23.4016 15.1939 22.8326 14.1812 21.8199C13.1685 20.8072 12.5996 19.4337 12.5996 18.0016C12.5996 16.5694 13.1685 15.1959 14.1812 14.1832C15.1939 13.1705 16.5674 12.6016 17.9996 12.6016C19.4318 12.6016 20.8053 13.1705 21.818 14.1832C22.8307 15.1959 23.3996 16.5694 23.3996 18.0016Z" fill="white"/>
<rect x="14" y="14" width="8" height="8" rx="4" fill="#EC407A"/>
</svg>
