<svg width="25" height="24" viewBox="0 0 25 24" fill="none" xmlns="http://www.w3.org/2000/svg">
<path d="M11.4722 1.87521C11.9385 1.10023 13.0621 1.10023 13.5285 1.87521L16.4624 6.75036C16.63 7.02877 16.9032 7.22733 17.2198 7.30065L22.763 8.58446C23.6442 8.78854 23.9914 9.85711 23.3984 10.5402L19.6685 14.837C19.4555 15.0824 19.3511 15.4036 19.3792 15.7274L19.8712 21.3959C19.9494 22.2971 19.0404 22.9575 18.2076 22.6046L12.9684 20.3851C12.6692 20.2583 12.3314 20.2583 12.0322 20.3851L6.7931 22.6046C5.96026 22.9575 5.05128 22.2971 5.12949 21.3959L5.62144 15.7274C5.64954 15.4036 5.54515 15.0824 5.33214 14.837L1.60223 10.5402C1.00929 9.85711 1.35649 8.78854 2.23767 8.58446L7.78083 7.30065C8.0974 7.22733 8.3707 7.02877 8.53825 6.75036L11.4722 1.87521Z" fill="white" stroke="white" stroke-width="1.5"/>
</svg>
