<svg width="25" height="24" viewBox="0 0 25 24" fill="none" xmlns="http://www.w3.org/2000/svg">
<path d="M10.748 1H4.74805C3.08805 1 1.74805 2.34 1.74805 4V10C1.74805 11.66 3.08805 13 4.74805 13H9.24805C9.24805 10.52 11.268 8.5 13.748 8.5V4C13.748 2.34 12.408 1 10.748 1ZM4.51805 4.27C5.28805 3.72 6.33805 3.71 7.12805 4.25C7.46805 4.48 7.55805 4.95 7.32805 5.29C7.09805 5.63 6.62805 5.72 6.28805 5.49C6.01805 5.3 5.64805 5.3 5.37805 5.5C5.24805 5.59 5.09805 5.63 4.94805 5.63C4.71805 5.63 4.47805 5.52 4.33805 5.32C4.09805 4.98 4.17805 4.51 4.51805 4.27ZM10.018 8.24C9.75805 8.57 9.28805 8.62 8.96805 8.36C8.61805 8.08 8.19805 7.93 7.74805 7.93C6.74805 7.93 5.91805 8.69 5.80805 9.67H7.90805C8.31805 9.67 8.65805 10.01 8.65805 10.42C8.65805 10.83 8.31805 11.17 7.90805 11.17H5.58805C4.87805 11.17 4.29805 10.59 4.29805 9.88C4.29805 7.98 5.84805 6.43 7.74805 6.43C8.52805 6.43 9.29805 6.7 9.90805 7.19C10.228 7.45 10.278 7.92 10.018 8.24ZM11.328 5.29C11.098 5.63 10.628 5.72 10.288 5.49C10.018 5.3 9.64805 5.3 9.37805 5.5C9.24805 5.59 9.09805 5.63 8.94805 5.63C8.71805 5.63 8.47805 5.52 8.33805 5.32C8.09805 4.98 8.17805 4.51 8.51805 4.27C9.28805 3.72 10.338 3.71 11.128 4.25C11.468 4.48 11.558 4.95 11.328 5.29Z" fill="white"/>
<path d="M18.9678 16.6786C18.8978 16.5986 18.7978 16.5586 18.6878 16.5586H14.8078C14.6978 16.5586 14.5978 16.5986 14.5278 16.6786C14.4578 16.7586 14.4178 16.8686 14.4378 16.9686C14.5678 18.1486 15.5578 19.0486 16.7478 19.0486C17.9378 19.0486 18.9278 18.1586 19.0578 16.9686C19.0678 16.8586 19.0378 16.7586 18.9678 16.6786Z" fill="white"/>
<path d="M19.748 10H13.748C12.098 10 10.748 11.35 10.748 13V19C10.748 20.65 12.098 22 13.748 22H19.748C21.398 22 22.748 20.65 22.748 19V13C22.748 11.35 21.398 10 19.748 10ZM13.338 13.17C13.578 12.83 14.048 12.75 14.388 12.99C14.658 13.18 15.018 13.18 15.288 13C15.628 12.76 16.098 12.85 16.328 13.2C16.558 13.54 16.478 14.01 16.128 14.24C15.738 14.5 15.288 14.64 14.838 14.64C14.368 14.64 13.908 14.5 13.518 14.22C13.178 13.97 13.098 13.5 13.338 13.17ZM16.748 20.17C14.848 20.17 13.298 18.62 13.298 16.72C13.298 16.01 13.878 15.43 14.588 15.43H18.908C19.618 15.43 20.198 16.01 20.198 16.72C20.198 18.62 18.648 20.17 16.748 20.17ZM20.128 14.23C19.738 14.49 19.288 14.63 18.838 14.63C18.368 14.63 17.908 14.49 17.518 14.21C17.178 13.97 17.098 13.5 17.338 13.16C17.578 12.82 18.048 12.74 18.388 12.98C18.658 13.17 19.018 13.17 19.288 12.99C19.628 12.75 20.098 12.84 20.328 13.19C20.558 13.54 20.468 14 20.128 14.23Z" fill="white"/>
</svg>
