<svg width="285" height="84" viewBox="0 0 285 84" fill="none" xmlns="http://www.w3.org/2000/svg">
<rect opacity="0.1" y="59" width="10" height="25" rx="1" fill="#565660"/>
<rect opacity="0.1" x="15.2773" y="77" width="10" height="7" rx="1" fill="#565660"/>
<rect opacity="0.1" x="30.5557" y="70" width="10" height="14" rx="1" fill="#565660"/>
<rect x="45.833" y="42" width="10" height="42" rx="1" fill="#EC407A"/>
<rect x="61.1113" y="57" width="10" height="27" rx="1" fill="#EC407A"/>
<rect x="76.3887" y="46" width="10" height="38" rx="1" fill="#EC407A"/>
<rect x="91.667" y="78" width="10" height="6" rx="1" fill="#EC407A"/>
<rect x="106.944" y="73" width="10" height="11" rx="1" fill="#EC407A"/>
<rect x="122.223" y="69" width="10" height="15" rx="1" fill="#EC407A"/>
<rect x="137.5" y="27" width="10" height="57" rx="1" fill="#EC407A"/>
<rect x="152.777" y="45" width="10" height="39" rx="1" fill="#EC407A"/>
<rect x="168.056" y="55" width="10" height="29" rx="1" fill="#EC407A"/>
<rect x="183.333" width="10" height="84" rx="1" fill="#EC407A"/>
<rect x="198.611" y="45" width="10" height="39" rx="1" fill="#EC407A"/>
<rect x="213.889" y="55" width="10" height="29" rx="1" fill="#EC407A"/>
<rect x="229.167" y="31" width="10" height="53" rx="1" fill="#EC407A"/>
<rect opacity="0.1" x="244.444" y="8" width="10" height="76" rx="1" fill="#565660"/>
<rect opacity="0.1" x="259.723" y="66" width="10" height="18" rx="1" fill="#565660"/>
<rect opacity="0.1" x="275" y="66" width="10" height="18" rx="1" fill="#565660"/>
</svg>
